<?xml version="1.0" standalone="no"?>
<!DOCTYPE svg PUBLIC "-//W3C//DTD SVG 20010904//EN"
 "http://www.w3.org/TR/2001/REC-SVG-20010904/DTD/svg10.dtd">
<svg version="1.0" xmlns="http://www.w3.org/2000/svg"
 width="900.000000pt" height="900.000000pt" viewBox="0 0 900.000000 900.000000"
 preserveAspectRatio="xMidYMid meet">
<metadata>
Created by potrace 1.11, written by Peter Selinger 2001-2013
</metadata>
<g transform="translate(0.000000,900.000000) scale(0.100000,-0.100000)"
fill="#000000" stroke="none">
<path d="M1965 7180 c-153 -18 -285 -80 -377 -178 -182 -195 -208 -499 -67
-772 129 -249 384 -474 644 -567 51 -18 1316 -329 2270 -558 453 -108 1162
-279 1410 -339 786 -191 1041 -247 1140 -253 305 -17 550 134 630 389 33 105
35 261 4 381 -74 293 -309 568 -609 716 -121 60 -187 78 -750 212 -1150 272
-1431 340 -1520 363 -52 14 -221 55 -375 90 -154 36 -404 94 -555 131 -370 89
-349 84 -735 175 -187 45 -451 108 -587 140 -320 76 -390 86 -523 70z"/>
<path d="M1890 4890 c-211 -56 -356 -194 -416 -395 -29 -94 -24 -265 10 -378
87 -291 316 -545 622 -689 65 -30 149 -56 314 -96 124 -30 340 -83 480 -118
622 -156 1518 -378 1770 -438 151 -36 379 -91 505 -122 658 -160 734 -175 866
-181 217 -9 365 41 489 166 178 179 210 446 90 734 -37 88 -127 229 -200 309
-113 126 -294 250 -458 313 -48 18 -253 72 -457 120 -203 48 -491 118 -640
155 -148 38 -412 103 -585 144 -173 41 -418 100 -545 130 -126 31 -383 92
-570 137 -187 44 -470 112 -630 151 -274 66 -298 70 -430 74 -118 3 -152 1
-215 -16z"/>
</g>
</svg>
